<?xml version="1.0" encoding="utf-8"?>
<!-- Generator: Adobe Illustrator 23.1.1, SVG Export Plug-In . SVG Version: 6.00 Build 0)  -->
<svg version="1.1" id="Layer_1" xmlns="http://www.w3.org/2000/svg" xmlns:xlink="http://www.w3.org/1999/xlink" x="0px" y="0px"
	 viewBox="0 0 24 24" style="enable-background:new 0 0 24 24;" xml:space="preserve">
<title>github</title>
<path d="M0,0v24h24V0H0z M18.2,11.4c-0.1,0.5-0.4,0.9-0.6,1.3c-0.3,0.3-0.6,0.6-1,0.8c-0.4,0.2-0.7,0.4-1.2,0.5
	c-0.4,0.1-0.8,0.2-1.2,0.2c0.5,0.5,0.7,1.1,0.6,1.8v2.9c0,0.1,0,0.2,0.1,0.3c0,0.1,0.1,0.1,0.2,0.2l0.2,0.1h-6l0,0h0.4
	c0.1,0,0.2-0.1,0.3-0.2c0.1-0.1,0.2-0.3,0.1-0.4v-0.8c0-0.5,0-1,0-1.3l-0.3,0c-0.2,0-0.5,0-0.7,0c-0.3,0-0.6,0-0.9-0.1
	c-0.3-0.1-0.6-0.2-0.8-0.4C7.2,16.2,7.1,16,7,15.7l-0.1-0.3c-0.1-0.2-0.2-0.4-0.4-0.6c-0.1-0.2-0.3-0.4-0.5-0.5l-0.1-0.1
	c-0.1,0-0.1-0.1-0.2-0.1c0,0-0.1-0.1-0.1-0.2c0-0.1,0-0.1,0-0.1c0.1,0,0.2,0,0.4,0h0.2c0.2,0.1,0.4,0.2,0.6,0.3
	c0.2,0.2,0.4,0.4,0.6,0.6C7.5,15,7.8,15.3,8,15.5c0.2,0.2,0.5,0.3,0.8,0.3c0.2,0,0.5,0,0.7-0.1c0.2,0,0.4-0.1,0.6-0.2
	c0-0.5,0.3-0.9,0.6-1.2c-0.4,0-0.8-0.1-1.2-0.2c-0.4-0.1-0.8-0.3-1.1-0.5c-0.4-0.2-0.7-0.5-1-0.8c-0.3-0.4-0.5-0.8-0.6-1.3
	c-0.2-0.6-0.3-1.2-0.2-1.8c0-0.9,0.3-1.8,1-2.5C7.1,6.3,7.2,5.4,7.5,4.6c0.3,0,0.7,0,1,0.2c0.3,0.1,0.7,0.3,1,0.5L10,5.5
	c0.8-0.2,1.6-0.3,2.4-0.3c0.8,0,1.6,0.1,2.3,0.3l0.5-0.3c0.4-0.2,0.7-0.4,1.1-0.5c0.3-0.2,0.7-0.2,1-0.1c0.4,0.8,0.4,1.7,0.1,2.5
	c0.7,0.7,1,1.6,1,2.5C18.4,10.2,18.3,10.8,18.2,11.4z"/>
</svg>
